<svg width="1920" height="1080" viewBox="0 0 1920 1080" fill="none" xmlns="http://www.w3.org/2000/svg">
  <defs>
    <linearGradient id="heroGradient" x1="0%" y1="0%" x2="100%" y2="100%">
      <stop offset="0%" style="stop-color:#004AAD;stop-opacity:1" />
      <stop offset="50%" style="stop-color:#00AEEF;stop-opacity:0.8" />
      <stop offset="100%" style="stop-color:#FFB800;stop-opacity:0.6" />
    </linearGradient>
    <pattern id="dots" x="0" y="0" width="60" height="60" patternUnits="userSpaceOnUse">
      <circle cx="30" cy="30" r="2" fill="#ffffff" opacity="0.1"/>
    </pattern>
  </defs>
  
  <!-- Background -->
  <rect width="1920" height="1080" fill="url(#heroGradient)"/>
  
  <!-- Pattern Overlay -->
  <rect width="1920" height="1080" fill="url(#dots)"/>
  
  <!-- HVAC System Illustration -->
  <g transform="translate(1400, 200)" opacity="0.3">
    <!-- AC Unit -->
    <rect x="0" y="0" width="300" height="200" rx="20" fill="#ffffff" opacity="0.2"/>
    <rect x="20" y="20" width="260" height="160" rx="10" fill="none" stroke="#ffffff" stroke-width="2" opacity="0.4"/>
    
    <!-- Vents -->
    <g opacity="0.6">
      <line x1="50" y1="50" x2="250" y2="50" stroke="#ffffff" stroke-width="2"/>
      <line x1="50" y1="70" x2="250" y2="70" stroke="#ffffff" stroke-width="2"/>
      <line x1="50" y1="90" x2="250" y2="90" stroke="#ffffff" stroke-width="2"/>
      <line x1="50" y1="110" x2="250" y2="110" stroke="#ffffff" stroke-width="2"/>
      <line x1="50" y1="130" x2="250" y2="130" stroke="#ffffff" stroke-width="2"/>
      <line x1="50" y1="150" x2="250" y2="150" stroke="#ffffff" stroke-width="2"/>
    </g>
    
    <!-- Control Panel -->
    <circle cx="250" cy="170" r="15" fill="#ffffff" opacity="0.3"/>
    <circle cx="250" cy="170" r="8" fill="none" stroke="#ffffff" stroke-width="2" opacity="0.5"/>
  </g>
  
  <!-- Floating Elements -->
  <g opacity="0.2">
    <circle cx="200" cy="300" r="40" fill="#ffffff" opacity="0.1"/>
    <circle cx="1600" cy="800" r="60" fill="#ffffff" opacity="0.1"/>
    <circle cx="300" cy="700" r="30" fill="#ffffff" opacity="0.1"/>
  </g>
</svg>
